<svg width="102" height="102" viewBox="0 0 102 102" fill="none" xmlns="http://www.w3.org/2000/svg">
<g clip-path="url(#clip0_2061_401)">
<path d="M100.372 34.7234H78.1276C77.2285 34.7234 76.5 35.452 76.5 36.351C76.5 37.2501 77.2285 37.9787 78.1276 37.9787H98.7448V47.7446H78.1276C77.2285 47.7446 76.5 48.4731 76.5 49.3722C76.5 50.2713 77.2285 50.9998 78.1276 50.9998H98.7448V85.7232H78.1276C77.2285 85.7232 76.5 86.4518 76.5 87.3509C76.5 88.2499 77.2285 88.9785 78.1276 88.9785H98.7448V98.7444H73.2448V31.3738C73.4239 31.4371 73.6067 31.4686 73.787 31.4686C74.4427 31.4686 75.061 31.0694 75.3083 30.4199C75.6284 29.5798 75.2067 28.6395 74.3666 28.3193L52.6276 20.0378V5.42552H62.3935V10.851H57.5105C56.6114 10.851 55.8829 11.5796 55.8829 12.4787C55.8829 13.3777 56.6114 14.1063 57.5105 14.1063H64.0211C64.9202 14.1063 65.6488 13.3777 65.6488 12.4787V3.79791C65.6488 2.89883 64.9202 2.17029 64.0211 2.17029H52.6276V1.62762C52.6276 0.728543 51.8991 0 51 0C50.1009 0 49.3724 0.728543 49.3724 1.62762V20.0378L27.6334 28.3193C26.7933 28.6395 26.372 29.5798 26.6917 30.4199C27.0071 31.2479 27.9247 31.6678 28.7554 31.3736V98.7448H3.25543V88.9789H23.8724C24.7715 88.9789 25.5 88.2503 25.5 87.3512C25.5 86.4522 24.7715 85.7236 23.8724 85.7236H3.25523V51H23.8724C24.7715 51 25.5 50.2715 25.5 49.3724C25.5 48.4733 24.7715 47.7448 23.8724 47.7448H3.25523V37.9789H23.8724C24.7715 37.9789 25.5 37.2503 25.5 36.3512C25.5 35.4522 24.7715 34.7236 23.8724 34.7236H1.62762C0.728543 34.7236 0 35.4522 0 36.3512V100.372C0 101.271 0.728543 102 1.62762 102H100.372C101.271 102 102 101.271 102 100.372V36.351C102 35.452 101.271 34.7234 100.372 34.7234ZM69.9893 98.7448H32.0107V95.4895H69.9893V98.7448ZM63.4787 88.9787V92.2339H38.5213V88.9787H63.4787ZM38.5213 85.7234V69.4469H49.3724V85.7234H38.5213ZM52.6276 85.7234V69.4469H63.4787V85.7234H52.6276ZM69.9893 92.2341H66.7341V67.8192C66.7341 66.9202 66.0056 66.1916 65.1065 66.1916H36.8937C35.9946 66.1916 35.2661 66.9202 35.2661 67.8192V92.2341H32.0109V30.1354L51 22.9012L69.9893 30.1354V92.2341Z" fill="#32A071"/>
<path d="M11.1227 71.0745C10.2237 71.0745 9.49512 71.803 9.49512 72.7021V79.2128C9.49512 80.1118 10.2237 80.8404 11.1227 80.8404C12.0218 80.8404 12.7504 80.1118 12.7504 79.2128V72.7021C12.7504 71.803 12.0218 71.0745 11.1227 71.0745Z" fill="#32A071"/>
<path d="M20.8884 71.0745C19.9893 71.0745 19.2607 71.803 19.2607 72.7021V79.2128C19.2607 80.1118 19.9893 80.8404 20.8884 80.8404C21.7874 80.8404 22.516 80.1118 22.516 79.2128V72.7021C22.516 71.803 21.7874 71.0745 20.8884 71.0745Z" fill="#32A071"/>
<path d="M11.1227 55.8831C10.2237 55.8831 9.49512 56.6116 9.49512 57.5107V64.0213C9.49512 64.9204 10.2237 65.649 11.1227 65.649C12.0218 65.649 12.7504 64.9204 12.7504 64.0213V57.5107C12.7504 56.6116 12.0218 55.8831 11.1227 55.8831Z" fill="#32A071"/>
<path d="M20.8884 55.8831C19.9893 55.8831 19.2607 56.6116 19.2607 57.5107V64.0213C19.2607 64.9204 19.9893 65.649 20.8884 65.649C21.7874 65.649 22.516 64.9204 22.516 64.0213V57.5107C22.516 56.6116 21.7874 55.8831 20.8884 55.8831Z" fill="#32A071"/>
<path d="M90.8776 71.0745C89.9785 71.0745 89.25 71.803 89.25 72.7021V79.2128C89.25 80.1118 89.9785 80.8404 90.8776 80.8404C91.7767 80.8404 92.5052 80.1118 92.5052 79.2128V72.7021C92.5052 71.803 91.7767 71.0745 90.8776 71.0745Z" fill="#32A071"/>
<path d="M81.112 71.0745C80.2129 71.0745 79.4844 71.803 79.4844 72.7021V79.2128C79.4844 80.1118 80.2129 80.8404 81.112 80.8404C82.0111 80.8404 82.7396 80.1118 82.7396 79.2128V72.7021C82.7396 71.803 82.0111 71.0745 81.112 71.0745Z" fill="#32A071"/>
<path d="M90.8776 55.8831C89.9785 55.8831 89.25 56.6116 89.25 57.5107V64.0213C89.25 64.9204 89.9785 65.649 90.8776 65.649C91.7767 65.649 92.5052 64.9204 92.5052 64.0213V57.5107C92.5052 56.6116 91.7767 55.8831 90.8776 55.8831Z" fill="#32A071"/>
<path d="M81.112 55.8831C80.2129 55.8831 79.4844 56.6116 79.4844 57.5107V64.0213C79.4844 64.9204 80.2129 65.649 81.112 65.649C82.0111 65.649 82.7396 64.9204 82.7396 64.0213V57.5107C82.7396 56.6116 82.0111 55.8831 81.112 55.8831Z" fill="#32A071"/>
<path d="M50.9996 34.7234C46.512 34.7234 42.8613 38.3741 42.8613 42.8617C42.8613 47.3493 46.512 51 50.9996 51C55.4872 51 59.1379 47.3493 59.1379 42.8617C59.1379 38.3741 55.4872 34.7234 50.9996 34.7234ZM50.9996 47.7447C48.3072 47.7447 46.1166 45.5541 46.1166 42.8617C46.1166 40.1692 48.3072 37.9786 50.9996 37.9786C53.6921 37.9786 55.8827 40.1692 55.8827 42.8617C55.8827 45.5541 53.6921 47.7447 50.9996 47.7447Z" fill="#32A071"/>
</g>
<defs>
<clipPath id="clip0_2061_401">
<rect width="102" height="102" fill="white"/>
</clipPath>
</defs>
</svg>
