<svg width="102" height="102" viewBox="0 0 102 102" fill="none" xmlns="http://www.w3.org/2000/svg">
<path fill-rule="evenodd" clip-rule="evenodd" d="M10.2 96.9H71.4C74.2167 96.9 76.5 94.6167 76.5 91.8V10.2C76.5 7.38335 74.2167 5.1 71.4 5.1H10.2C7.38335 5.1 5.1 7.38335 5.1 10.2V91.8C5.1 94.6167 7.38335 96.9 10.2 96.9ZM71.4 102H10.2C4.56669 102 0 97.4332 0 91.8V10.2C0 4.56669 4.56669 0 10.2 0H71.4C77.0332 0 81.6 4.56669 81.6 10.2V91.8C81.6 97.4332 77.0332 102 71.4 102Z" fill="#32A071"/>
<path fill-rule="evenodd" clip-rule="evenodd" d="M35.7 22.95C35.7 21.5416 36.8416 20.4 38.25 20.4H68.85C70.2584 20.4 71.4 21.5416 71.4 22.95C71.4 24.3584 70.2584 25.5 68.85 25.5H38.25C36.8416 25.5 35.7 24.3584 35.7 22.95Z" fill="#32A071"/>
<path fill-rule="evenodd" clip-rule="evenodd" d="M35.7 33.15C35.7 31.7416 36.8416 30.6 38.25 30.6H68.85C70.2584 30.6 71.4 31.7416 71.4 33.15C71.4 34.5584 70.2584 35.7 68.85 35.7H38.25C36.8416 35.7 35.7 34.5584 35.7 33.15Z" fill="#32A071"/>
<path fill-rule="evenodd" clip-rule="evenodd" d="M35.7 53.55C35.7 52.1416 36.8416 51 38.25 51H68.85C70.2584 51 71.4 52.1416 71.4 53.55C71.4 54.9584 70.2584 56.1 68.85 56.1H38.25C36.8416 56.1 35.7 54.9584 35.7 53.55Z" fill="#32A071"/>
<path fill-rule="evenodd" clip-rule="evenodd" d="M35.7 63.75C35.7 62.3416 36.8416 61.2 38.25 61.2H68.85C70.2584 61.2 71.4 62.3416 71.4 63.75C71.4 65.1584 70.2584 66.3 68.85 66.3H38.25C36.8416 66.3 35.7 65.1584 35.7 63.75Z" fill="#32A071"/>
<path fill-rule="evenodd" clip-rule="evenodd" d="M15.3 56.1V63.75H22.95V56.1H15.3ZM12.75 51H25.5C26.9084 51 28.05 52.1416 28.05 53.55V66.3C28.05 67.7084 26.9084 68.85 25.5 68.85H12.75C11.3417 68.85 10.2 67.7084 10.2 66.3V53.55C10.2 52.1416 11.3417 51 12.75 51Z" fill="#32A071"/>
<path fill-rule="evenodd" clip-rule="evenodd" d="M29.8531 21.1468C30.8489 22.1426 30.8489 23.7573 29.8531 24.753L17.85 36.7561L10.9469 29.853C9.95104 28.8573 9.95104 27.2426 10.9469 26.2468C11.9427 25.2511 13.5573 25.2511 14.5531 26.2468L17.85 29.5437L26.2469 21.1468C27.2427 20.1511 28.8573 20.1511 29.8531 21.1468Z" fill="#32A071"/>
<path fill-rule="evenodd" clip-rule="evenodd" d="M96.9 51H91.8V90.0999L94.35 93.5001L96.9 90.0999V51ZM102 91.8L94.35 102L86.7 91.8V45.9H102V91.8Z" fill="#32A071"/>
<path fill-rule="evenodd" clip-rule="evenodd" d="M96.9 33.15H91.8V38.25H96.9V33.15ZM91.8 28.05H96.9C99.7167 28.05 102 30.3333 102 33.15V43.35H86.7V33.15C86.7 30.3333 88.9833 28.05 91.8 28.05Z" fill="#32A071"/>
</svg>
