<svg width="74" height="97" viewBox="0 0 74 97" fill="none" xmlns="http://www.w3.org/2000/svg">
<path d="M72.2129 13.4264H67.2527V8.46618C67.2527 7.49798 66.4681 6.71318 65.4997 6.71318H60.5397V1.753C60.5397 0.784802 59.7551 0 58.7867 0H1.753C0.784614 0 0 0.78499 0 1.753V81.2263C0 82.1945 0.784614 82.9793 1.753 82.9793H6.71299V87.9393C6.71299 88.9074 7.49761 89.6923 8.46599 89.6923H13.426V94.6522C13.426 95.6204 14.2106 96.4052 15.179 96.4052H72.2127C73.1811 96.4052 73.9657 95.6203 73.9657 94.6522V15.1794C73.9659 14.2112 73.1813 13.4264 72.2129 13.4264ZM3.506 79.4733V3.50619H57.0335V79.4733H3.506ZM10.2194 86.1862V82.9793H58.7865C59.7549 82.9793 60.5395 82.1943 60.5395 81.2263V10.2194H63.7467V86.1864L10.2194 86.1862ZM70.4597 92.8994H16.9322V89.6924H65.4997C66.4681 89.6924 67.2527 88.9074 67.2527 87.9394V16.9326H70.4597V92.8994Z" fill="#32A071"/>
<path d="M39.8606 17.9995H20.6759C19.7075 17.9995 18.9229 18.7845 18.9229 19.7525C18.9229 20.7205 19.7075 21.5055 20.6759 21.5055H39.8604C40.8288 21.5055 41.6134 20.7205 41.6134 19.7525C41.6134 18.7845 40.829 17.9995 39.8606 17.9995Z" fill="#32A071"/>
<path d="M47.7993 26.6943H12.7393C11.7709 26.6943 10.9863 27.4793 10.9863 28.4473C10.9863 29.4153 11.7709 30.2003 12.7393 30.2003H47.7993C48.7677 30.2003 49.5523 29.4153 49.5523 28.4473C49.5523 27.4793 48.7675 26.6943 47.7993 26.6943Z" fill="#32A071"/>
<path d="M47.7993 35.3889H12.7393C11.7709 35.3889 10.9863 36.1739 10.9863 37.1419C10.9863 38.1099 11.7709 38.8949 12.7393 38.8949H47.7993C48.7677 38.8949 49.5523 38.1099 49.5523 37.1419C49.5523 36.1739 48.7675 35.3889 47.7993 35.3889Z" fill="#32A071"/>
<path d="M47.7993 44.0837H12.7393C11.7709 44.0837 10.9863 44.8687 10.9863 45.8367C10.9863 46.8048 11.7709 47.5897 12.7393 47.5897H47.7993C48.7677 47.5897 49.5523 46.8048 49.5523 45.8367C49.5523 44.8687 48.7675 44.0837 47.7993 44.0837Z" fill="#32A071"/>
<path d="M47.7993 52.7786H12.7393C11.7709 52.7786 10.9863 53.5636 10.9863 54.5316C10.9863 55.4996 11.7709 56.2846 12.7393 56.2846H47.7993C48.7677 56.2846 49.5523 55.4996 49.5523 54.5316C49.5523 53.5636 48.7675 52.7786 47.7993 52.7786Z" fill="#32A071"/>
<path d="M47.7993 61.4734H12.7393C11.7709 61.4734 10.9863 62.2584 10.9863 63.2264C10.9863 64.1944 11.7709 64.9794 12.7393 64.9794H47.7993C48.7677 64.9794 49.5523 64.1944 49.5523 63.2264C49.5523 62.2584 48.7675 61.4734 47.7993 61.4734Z" fill="#32A071"/>
</svg>
