<svg width="102" height="102" viewBox="0 0 102 102" fill="none" xmlns="http://www.w3.org/2000/svg">
<path d="M100.206 52.373H92.847V33.5019C92.847 33.4153 92.8385 33.3309 92.834 33.2456V18.7135C92.834 17.7254 92.0307 16.9244 91.0397 16.9244H72.0148L55.5671 0.523936C55.2304 0.188508 54.7741 0 54.2982 0C53.8223 0 53.366 0.188451 53.0293 0.523936L40.6272 12.8904L34.7969 7.07672C34.096 6.37808 32.9601 6.37808 32.2592 7.07672L22.3715 16.9359C22.3062 16.9287 22.2398 16.9244 22.1725 16.9244H1.79429C0.803273 16.9244 0 17.7254 0 18.7135V37.7551C0 37.8135 0.00324773 37.8711 0.00877457 37.928V97.1438C0.00877457 99.8215 2.19359 102 4.87901 102H87.9767C90.6622 102 92.847 99.8215 92.847 97.1438V78.273H100.206C101.197 78.273 102 77.472 102 76.4838V54.1621C102 53.1739 101.197 52.373 100.206 52.373ZM89.2453 20.5027V28.8187C88.8401 28.7093 88.416 28.6457 87.9767 28.6457H83.7695L75.6031 20.5027H89.2453ZM54.2983 4.31932L78.6946 28.6457H73.2486L51.5753 7.03451L54.2983 4.31932ZM49.0375 9.56499L68.1731 28.6457H56.4283L43.165 15.4206L49.0375 9.56499ZM33.528 10.8721L38.0897 15.4206L40.6272 17.9508L51.3529 28.6457H46.4622L31.0827 13.3104L33.528 10.8721ZM41.3866 28.6457H15.7032L28.5449 15.8409L41.3866 28.6457ZM10.6279 28.6457H4.87901C4.43168 28.6457 4.00041 28.7111 3.58863 28.8241V20.5027H18.7944L10.6279 28.6457ZM89.2584 97.1438C89.2584 97.8484 88.6834 98.4218 87.9767 98.4218H4.87901C4.17237 98.4218 3.59741 97.8484 3.59741 97.1438V33.5019C3.59741 32.7973 4.17237 32.224 4.87901 32.224H87.9767C88.6394 32.224 89.1798 32.7299 89.2454 33.3734V37.7551C89.2454 37.8253 89.2507 37.8944 89.2585 37.9625V52.373H72.9495C65.7883 52.373 59.9621 58.1822 59.9621 65.3228C59.9621 72.4636 65.7884 78.2731 72.9495 78.2731H89.2585L89.2584 97.1438ZM98.4114 74.6948H92.847H89.2585H72.9495C67.7672 74.6948 63.5507 70.4905 63.5507 65.3227C63.5507 60.1552 67.7672 55.9513 72.9495 55.9513H89.2585H92.847H98.4114V74.6948Z" fill="#32A071"/>
</svg>
