<svg width="16" height="16" viewBox="0 0 16 16" fill="none" xmlns="http://www.w3.org/2000/svg">
<path fill-rule="evenodd" clip-rule="evenodd" d="M8 0.842105C4.0468 0.842105 0.842105 4.0468 0.842105 8C0.842105 11.9532 4.0468 15.1579 8 15.1579C11.9532 15.1579 15.1579 11.9532 15.1579 8C15.1579 4.0468 11.9532 0.842105 8 0.842105ZM0 8C0 3.58172 3.58172 0 8 0C12.4183 0 16 3.58172 16 8C16 12.4183 12.4183 16 8 16C3.58172 16 0 12.4183 0 8ZM8 2.52632C8.23254 2.52632 8.42105 2.71483 8.42105 2.94737V8C8.42105 8.23254 8.23254 8.42105 8 8.42105H2.94737C2.71483 8.42105 2.52632 8.23254 2.52632 8C2.52632 7.76746 2.71483 7.57895 2.94737 7.57895H7.57895V2.94737C7.57895 2.71483 7.76746 2.52632 8 2.52632Z" fill="#37D08C"/>
</svg>
