<svg width="102" height="90" viewBox="0 0 102 90" fill="none" xmlns="http://www.w3.org/2000/svg">
<path fill-rule="evenodd" clip-rule="evenodd" d="M8.0411 8.5609C2.89582 13.9934 0 21.3554 0 29.0321C0 36.7126 2.89582 44.0746 8.0411 49.5034L43.189 86.5906C45.2631 88.7786 48.0786 90 51.0146 90C53.9469 90 56.7661 88.7786 58.8403 86.5906C65.2052 79.873 93.9589 49.4734 93.9589 49.4734C99.1042 44.0446 102 36.6826 102 29.0022C102 21.3217 99.1042 13.9635 93.9589 8.53093C88.7771 3.06469 81.7439 0 74.4149 0C67.0859 0 60.0563 3.06469 54.8745 8.53093L50.9854 12.6334L47.1255 8.5609C41.9437 3.09466 34.9142 0.029973 27.5851 0.029973C20.2561 0.029973 13.2229 3.09466 8.0411 8.5609ZM13.2777 13.7874C17.0718 9.78228 22.2171 7.5231 27.5851 7.5231C32.9532 7.5231 38.0948 9.78228 41.8889 13.7874L48.3671 20.6211C49.0536 21.3442 49.9994 21.7563 50.9854 21.7563C51.9714 21.7563 52.9172 21.3442 53.6037 20.6211L60.1111 13.7536C63.9052 9.75231 69.0468 7.49313 74.4149 7.49313C79.7829 7.49313 84.9245 9.75231 88.7223 13.7536C88.7333 13.7686 88.7442 13.7799 88.7588 13.7949C92.553 17.7999 94.6965 23.2849 94.6965 29.0022C94.6965 34.7194 92.553 40.2081 88.7223 44.2507C88.7223 44.2507 59.9686 74.6503 53.6037 81.3679C52.9172 82.091 51.986 82.5069 51.0146 82.5069C50.0433 82.5069 49.1121 82.091 48.4255 81.3679L13.2777 44.2807C9.44701 40.2381 7.30345 34.7494 7.30345 29.0321C7.30345 23.3149 9.44701 17.8299 13.2777 13.7874Z" fill="#32A071"/>
<path fill-rule="evenodd" clip-rule="evenodd" d="M47.2472 41.2472H39.7528C37.6813 41.2472 36 42.9284 36 45C36 47.0716 37.6813 48.7528 39.7528 48.7528H47.2472V56.2472C47.2472 58.3187 48.9284 60 51 60C53.0716 60 54.7528 58.3187 54.7528 56.2472V48.7528H62.2472C64.3187 48.7528 66 47.0716 66 45C66 42.9284 64.3187 41.2472 62.2472 41.2472H54.7528V33.7528C54.7528 31.6813 53.0716 30 51 30C48.9284 30 47.2472 31.6813 47.2472 33.7528V41.2472Z" fill="#32A071"/>
</svg>
