<svg width="100" height="97" viewBox="0 0 100 97" fill="none" xmlns="http://www.w3.org/2000/svg">
<path d="M99.9808 71.1526C99.9789 71.1015 99.9771 71.0505 99.975 70.9993C99.9611 70.6815 99.9414 70.3653 99.916 70.0509C99.9142 70.0294 99.9121 70.0077 99.9103 69.9862C99.8549 69.329 99.7736 68.6792 99.6677 68.0372C99.664 68.0148 99.6617 67.9919 99.658 67.9694C99.6564 67.9597 99.6535 67.9503 99.6517 67.9401C97.6676 56.1894 87.4201 47.21 75.1136 47.21C62.807 47.21 52.5598 56.1894 50.5754 67.9401C50.5736 67.9499 50.5709 67.9593 50.5693 67.9694C50.5654 67.9919 50.5633 68.0148 50.5596 68.0372C50.4537 68.679 50.3727 69.329 50.317 69.9862C50.3152 70.0077 50.3129 70.0294 50.3113 70.0509C50.2856 70.3653 50.2662 70.6815 50.2523 70.9993C50.25 71.0505 50.2484 71.1015 50.2465 71.1526C50.2346 71.4663 50.2266 71.7808 50.2266 72.0974C50.2266 72.414 50.2346 72.7284 50.2465 73.0421C50.2482 73.0932 50.25 73.144 50.2522 73.1952C50.266 73.513 50.2857 73.8294 50.3113 74.144C50.3131 74.1653 50.3152 74.1866 50.317 74.2077C50.3725 74.8653 50.4539 75.5155 50.5598 76.1579C50.5635 76.1801 50.5658 76.2026 50.5695 76.2249C50.5711 76.2346 50.5738 76.244 50.5756 76.2538C52.56 88.0047 62.8072 96.9843 75.1138 96.9843C87.4203 96.9843 97.6678 88.0047 99.6519 76.2538C99.6537 76.2442 99.6564 76.2348 99.658 76.2249C99.6613 76.2028 99.6636 76.1801 99.6674 76.1579C99.7732 75.5155 99.8545 74.8653 99.9101 74.2077C99.9119 74.1864 99.914 74.1651 99.9158 74.144C99.9416 73.8294 99.9611 73.5132 99.975 73.1952C99.9771 73.144 99.9789 73.0931 99.9808 73.0421C99.9927 72.7284 100 72.4138 100 72.0974C100 71.7809 99.9924 71.4663 99.9808 71.1526ZM75.113 93.9193C64.9464 93.9193 56.3818 86.9307 53.9695 77.5055H96.2562C93.8441 86.9307 85.2795 93.9193 75.113 93.9193ZM96.9269 72.6774C96.9264 72.7001 96.9252 72.7225 96.9242 72.7452C96.9191 72.9179 96.9125 73.0905 96.9033 73.2634C96.9025 73.2774 96.9016 73.2913 96.9006 73.3055C96.8906 73.4866 96.8787 73.6677 96.8642 73.8485C96.8633 73.8608 96.8619 73.8731 96.8609 73.8854C96.8463 74.0659 96.8295 74.2462 96.8101 74.4261C96.8096 74.4307 96.809 74.4354 96.8086 74.4401H53.417C53.4166 74.4354 53.416 74.4307 53.4154 74.4261C53.3963 74.246 53.3795 74.0657 53.3648 73.8854C53.3639 73.8731 53.3627 73.8608 53.3615 73.8485C53.3471 73.6677 53.3351 73.4866 53.3252 73.3055C53.3244 73.2915 53.3234 73.2776 53.3224 73.2634C53.3133 73.0907 53.3066 72.9179 53.3016 72.7452C53.301 72.7225 53.2996 72.7001 53.2988 72.6774C53.2937 72.4841 53.291 72.2907 53.291 72.0977C53.291 71.9048 53.2937 71.7116 53.2988 71.5181C53.2994 71.495 53.3008 71.4722 53.3016 71.4489C53.3066 71.2766 53.3133 71.1044 53.3224 70.9319C53.3232 70.9173 53.3244 70.9026 53.3254 70.888C53.3353 70.7075 53.3473 70.5272 53.3617 70.347C53.3627 70.3339 53.3642 70.3208 53.3652 70.3077C53.3799 70.128 53.3967 69.9487 53.4156 69.7694C53.4162 69.7645 53.4168 69.7597 53.4172 69.7548H63.3603C64.207 69.7548 64.8929 69.0687 64.8929 68.2222C64.8929 67.3757 64.207 66.6896 63.3603 66.6896H53.9699C56.3818 57.2642 64.9464 50.2758 75.1132 50.2758C85.2797 50.2758 93.8443 57.2644 96.2564 66.6896H68.3923C67.5456 66.6896 66.8597 67.3757 66.8597 68.2222C66.8597 69.0687 67.5456 69.7548 68.3923 69.7548H96.8088C96.8094 69.7597 96.8099 69.7645 96.8103 69.7694C96.8295 69.9487 96.8461 70.128 96.8607 70.3077C96.8617 70.3208 96.8633 70.3339 96.8642 70.347C96.8787 70.5272 96.8906 70.7077 96.9004 70.888C96.9012 70.9026 96.9023 70.9173 96.9033 70.9319C96.9125 71.1042 96.9191 71.2766 96.9242 71.4489C96.9248 71.472 96.9262 71.4948 96.9269 71.5181C96.932 71.7114 96.9347 71.9048 96.9347 72.0977C96.9347 72.2905 96.932 72.4839 96.9269 72.6774Z" fill="#32A071"/>
<path d="M70.7807 6.39636C62.2521 -2.13212 48.3754 -2.13212 39.8469 6.39636L37.3908 8.8524C36.7922 9.45103 36.7922 10.4213 37.3908 11.0198C37.9895 11.6184 38.9598 11.6184 39.5584 11.0198L42.0143 8.56373C49.3476 1.23056 61.2796 1.23076 68.613 8.56373C75.9461 15.8969 75.9461 27.8289 68.613 35.1624L50.9066 52.8688C52.7416 45.635 50.8357 37.6394 45.1865 31.9902C41.0553 27.8588 35.5623 25.5838 29.7196 25.5838C27.877 25.5838 26.0692 25.8105 24.328 26.25L36.001 14.577C36.5996 13.9784 36.5996 13.008 36.001 12.4096C35.4024 11.811 34.4321 11.811 33.8336 12.4096L10.9841 35.2589L6.40583 39.837C6.37263 39.87 6.34099 39.9038 6.30837 39.9372C6.21091 40.0359 6.11345 40.1349 6.01794 40.2353C5.98865 40.2659 5.96052 40.2972 5.93161 40.328C5.83161 40.4343 5.7322 40.5407 5.63474 40.6485C5.624 40.6607 5.61326 40.6732 5.60251 40.6851C1.98144 44.7056 0 49.8518 0 55.3034C0 60.7656 1.98925 65.9223 5.62419 69.9461C5.62732 69.9494 5.63005 69.9527 5.63318 69.956C5.74158 70.0758 5.85154 70.1941 5.96286 70.3119C5.98103 70.331 5.99861 70.3508 6.01677 70.3699C6.14489 70.5047 6.27478 70.6381 6.40681 70.7701C6.53884 70.9021 6.67243 71.0322 6.8072 71.1603C6.82497 71.1773 6.84313 71.1937 6.8611 71.2103C6.98005 71.323 7.09977 71.4343 7.22106 71.5439C7.2238 71.5461 7.22634 71.5484 7.22887 71.5509C11.2533 75.1871 16.4105 77.1767 21.8737 77.1767C27.337 77.1767 32.4942 75.1869 36.5186 71.5509C36.5213 71.5486 36.5239 71.5464 36.5264 71.5439C36.6473 71.4343 36.7672 71.323 36.8864 71.2103C36.9041 71.1935 36.9225 71.1773 36.9403 71.1603C37.0752 71.032 37.2086 70.9019 37.3407 70.7701L70.7811 37.3298C79.309 28.8015 79.309 14.9246 70.7807 6.39636ZM43.0201 60.7555L35.1729 68.6027C34.9457 68.8299 34.7139 69.05 34.4782 69.2633C34.4438 69.2943 34.4079 69.323 34.3733 69.3539C34.1674 69.5373 33.9598 69.7176 33.7481 69.8904C33.7409 69.8963 33.7336 69.9015 33.7264 69.9074C26.8458 75.5005 16.9025 75.5007 10.0212 69.908C10.0138 69.9021 10.0062 69.8965 9.99878 69.8904C9.78707 69.7179 9.57984 69.5375 9.37398 69.3545C9.33922 69.3236 9.30328 69.2947 9.26871 69.2635C9.03297 69.0504 8.80113 68.8302 8.57398 68.6029C2.21913 62.2477 1.37558 52.4405 6.03513 45.1642C6.08025 45.0938 6.12165 45.0218 6.16775 44.9518C6.26872 44.7989 6.37712 44.6497 6.48298 44.4989C6.55739 44.3929 6.6279 44.285 6.70485 44.1804C6.82888 44.0114 6.96091 43.8466 7.09137 43.681C7.1568 43.5979 7.21813 43.513 7.28493 43.4308C7.40446 43.2841 7.532 43.1417 7.65661 42.9976C7.74098 42.9003 7.82125 42.8005 7.90797 42.7048C8.01657 42.5847 8.13219 42.469 8.2441 42.3511C8.35426 42.2355 8.46051 42.1175 8.57418 42.0038L16.4206 34.1578C19.9732 30.6054 24.6962 28.649 29.72 28.649C34.7438 28.649 39.4666 30.6054 43.0191 34.1579C50.3519 41.4907 50.3523 53.4223 43.0201 60.7555Z" fill="#32A071"/>
</svg>
