<svg width="121" height="99" viewBox="0 0 121 99" fill="none" xmlns="http://www.w3.org/2000/svg">
<path d="M9.5 11C10.8807 11 12 10.1046 12 9C12 7.89543 10.8807 7 9.5 7C8.11929 7 7 7.89543 7 9C7 10.1046 8.11929 11 9.5 11Z" fill="#32A071"/>
<path d="M25 11C26.1046 11 27 10.1046 27 9C27 7.89543 26.1046 7 25 7C23.8954 7 23 7.89543 23 9C23 10.1046 23.8954 11 25 11Z" fill="#32A071"/>
<path d="M17.5 11C18.8807 11 20 10.1046 20 9C20 7.89543 18.8807 7 17.5 7C16.1193 7 15 7.89543 15 9C15 10.1046 16.1193 11 17.5 11Z" fill="#32A071"/>
<path d="M33.9444 42.4648L41.2808 35.8051C41.7413 35.3871 42 34.8201 42 34.229C42 33.6378 41.7413 33.0709 41.2808 32.6529C40.8203 32.2348 40.1958 32 39.5445 32C38.8933 32 38.2687 32.2348 37.8082 32.6529L28.7111 40.9331C28.2557 41.349 28 41.9116 28 42.4981C28 43.0846 28.2557 43.6472 28.7111 44.0631L37.8082 52.3434C38.0356 52.5514 38.3061 52.7166 38.6041 52.8293C38.9021 52.942 39.2217 53 39.5445 53C39.8674 53 40.187 52.942 40.485 52.8293C40.783 52.7166 41.0535 52.5514 41.2808 52.3434C41.7363 51.9274 41.9919 51.3648 41.9919 50.7783C41.9919 50.1919 41.7363 49.6292 41.2808 49.2133L33.9444 42.4648Z" fill="#32A071"/>
<path d="M66.671 52.3505C67.0963 52.7665 67.6717 53 68.2715 53C68.8712 53 69.4466 52.7665 69.872 52.3505L78.3398 44.1304C78.7627 43.7118 79 43.1457 79 42.5556C79 41.9655 78.7627 41.3993 78.3398 40.9808L69.872 32.649C69.4445 32.2314 68.8659 31.9979 68.2635 32C67.661 32.0021 67.0841 32.2396 66.6596 32.6602C66.2352 33.0808 65.9979 33.6501 66 34.2429C66.0021 34.8356 66.2435 35.4033 66.671 35.8209L73.4816 42.5221L66.671 49.2232C66.255 49.6408 66.022 50.2022 66.022 50.7868C66.022 51.3715 66.255 51.9329 66.671 52.3505Z" fill="#32A071"/>
<path d="M59.6848 33.3004C59.4073 33.1529 59.1006 33.0573 58.7826 33.019C58.4646 32.9807 58.1414 33.0004 57.8317 33.0771C57.5221 33.1538 57.232 33.2859 56.9782 33.4658C56.7245 33.6457 56.512 33.8699 56.3532 34.1254L47.3796 48.5741C47.2036 48.8278 47.0855 49.1116 47.0322 49.4084C46.979 49.7051 46.9918 50.0087 47.0698 50.3007C47.1479 50.5928 47.2895 50.8674 47.4863 51.108C47.6831 51.3486 47.9309 51.5502 48.2149 51.7007C48.4988 51.8512 48.813 51.9475 49.1386 51.9837C49.4642 52.02 49.7944 51.9955 50.1094 51.9117C50.4244 51.8279 50.7177 51.6866 50.9716 51.4962C51.2254 51.3058 51.4347 51.0703 51.5867 50.8038L60.6576 36.422C60.8273 36.1607 60.9369 35.8704 60.9797 35.5689C61.0225 35.2673 60.9975 34.961 60.9064 34.6686C60.8153 34.3762 60.6599 34.104 60.4499 33.8687C60.2398 33.6334 59.9794 33.44 59.6848 33.3004Z" fill="#32A071"/>
<path d="M115.808 64.5603C115.674 64.5593 115.543 64.5172 115.433 64.4396C115.324 64.362 115.24 64.2527 115.194 64.1262C114.288 61.7349 113.004 59.5057 111.391 57.524C111.315 57.4132 111.274 57.2817 111.274 57.147C111.274 57.0124 111.315 56.8809 111.391 56.7701C112.085 55.5642 112.273 54.1314 111.914 52.7864C111.555 51.4414 110.679 50.2942 109.478 49.5967L107.771 48.5687V6.85353C107.771 5.03586 107.051 3.29264 105.77 2.00735C104.489 0.722068 102.751 0 100.94 0H6.83101C5.01932 0 3.28182 0.722068 2.00076 2.00735C0.719694 3.29264 0 5.03586 0 6.85353V64.743C0.00599257 66.1529 0.566879 67.5033 1.56054 68.5003C2.55421 69.4972 3.90018 70.0599 5.30542 70.066H36.4321L34.1551 78.5187H31.1266C28.9088 78.5202 26.7563 79.2719 25.0169 80.6522C23.2774 82.0326 22.0527 83.9611 21.5405 86.1261H15.939C15.3351 86.1261 14.756 86.3668 14.3289 86.7952C13.9019 87.2236 13.662 87.8047 13.662 88.4106C13.662 89.0165 13.9019 89.5975 14.3289 90.026C14.756 90.4544 15.3351 90.6951 15.939 90.6951H73.9343C73.8958 91.2409 73.9496 91.7894 74.0937 92.3171C74.2645 92.9873 74.5682 93.6159 74.9869 94.1655C75.4055 94.7151 75.9304 95.1742 76.5301 95.5154L81.3346 98.3025C81.9311 98.6461 82.5893 98.8684 83.2714 98.9568C83.9536 99.0451 84.6464 98.9978 85.3104 98.8175C85.9743 98.6371 86.5964 98.3274 87.141 97.9058C87.6856 97.4843 88.1421 96.9592 88.4844 96.3607C88.5582 96.2441 88.6643 96.1518 88.7897 96.0949C88.9151 96.0381 89.0543 96.0193 89.1903 96.0408C91.6916 96.4749 94.2486 96.4749 96.7499 96.0408C96.8884 96.0183 97.0304 96.0391 97.1567 96.1004C97.283 96.1618 97.3874 96.2606 97.4558 96.3835C97.9199 97.1808 98.5852 97.8413 99.3847 98.2985C100.184 98.7557 101.09 98.9935 102.01 98.9879C102.928 98.9968 103.832 98.7602 104.628 98.3025L109.433 95.5154C110.029 95.1701 110.552 94.7097 110.97 94.1608C111.388 93.6118 111.694 92.9852 111.869 92.3171C112.051 91.653 112.098 90.9591 112.008 90.2765C111.918 89.5938 111.693 88.9361 111.346 88.342C111.267 88.2278 111.225 88.0924 111.225 87.9537C111.225 87.815 111.267 87.6796 111.346 87.5653C112.953 85.5886 114.237 83.3676 115.148 80.9859C115.192 80.8575 115.274 80.7463 115.385 80.6683C115.495 80.5903 115.628 80.5495 115.763 80.5519C117.15 80.5459 118.479 79.9903 119.459 79.0062C120.44 78.0222 120.994 76.6892 121 75.2975V69.7233C120.976 68.3535 120.42 67.0472 119.451 66.0827C118.481 65.1183 117.174 64.572 115.808 64.5603ZM4.55401 6.85353C4.55401 6.24764 4.79391 5.66657 5.22093 5.23814C5.64795 4.80971 6.22711 4.56902 6.83101 4.56902H100.94C101.544 4.56902 102.123 4.80971 102.55 5.23814C102.977 5.66657 103.217 6.24764 103.217 6.85353V13.7071H4.55401V6.85353ZM5.30542 65.4969C5.20674 65.4969 5.10903 65.4774 5.01787 65.4395C4.9267 65.4017 4.84387 65.3461 4.77409 65.2761C4.70432 65.2061 4.64897 65.123 4.61121 65.0315C4.57344 64.9401 4.55401 64.842 4.55401 64.743V18.2761H103.217V46.2842C102.139 45.9971 100.998 46.064 99.9614 46.4752C98.9246 46.8863 98.0464 47.6201 97.4558 48.5687C97.3849 48.6814 97.2818 48.77 97.1599 48.823C97.0381 48.876 96.9031 48.8909 96.7727 48.8657C94.2695 48.4543 91.7162 48.4543 89.213 48.8657C89.0825 48.8942 88.9464 48.8809 88.8238 48.8276C88.7012 48.7743 88.5984 48.6838 88.5299 48.5687C88.1879 47.9698 87.7311 47.4447 87.1859 47.0238C86.6407 46.6028 86.0178 46.2942 85.3532 46.1158C84.6886 45.9375 83.9954 45.8928 83.3135 45.9844C82.6316 46.0761 81.9745 46.3022 81.3801 46.6497L76.5757 49.4368C75.9775 49.7744 75.4534 50.2297 75.0348 50.7753C74.6161 51.321 74.3115 51.9458 74.1393 52.6123C73.7751 53.9591 73.9551 55.3957 74.6402 56.6102C74.7233 56.7182 74.7684 56.8507 74.7684 56.9871C74.7684 57.1235 74.7233 57.2561 74.6402 57.3641C73.0276 59.3457 71.7437 61.575 70.8376 63.9663C70.7913 64.0928 70.7076 64.2021 70.5978 64.2797C70.4879 64.3572 70.3571 64.3993 70.2228 64.4004C69.1076 64.402 68.0222 64.7623 67.1261 65.4284L5.30542 65.4969ZM66.0331 78.5187H38.7091L40.9861 70.066H64.8946V75.2975C64.9092 76.4679 65.3095 77.6005 66.0331 78.5187ZM31.1494 83.0877H71.6801C72.2005 84.1409 72.794 85.1562 73.4562 86.1261H26.3449C26.7748 85.2184 27.452 84.4514 28.2982 83.9137C29.1444 83.376 30.125 83.0896 31.1266 83.0877H31.1494ZM116.492 75.2975C116.492 75.4792 116.42 75.6536 116.291 75.7821C116.163 75.9106 115.99 75.9828 115.808 75.9828C114.748 75.9855 113.713 76.3098 112.839 76.9132C111.965 77.5165 111.294 78.3708 110.913 79.3639C110.185 81.29 109.155 83.087 107.862 84.6868C107.195 85.5133 106.792 86.5226 106.707 87.5825C106.622 88.6424 106.857 89.7034 107.384 90.6265C107.42 90.7052 107.439 90.791 107.439 90.8778C107.439 90.9647 107.42 91.0505 107.384 91.1291C107.364 91.2199 107.325 91.3054 107.27 91.3802C107.215 91.455 107.145 91.5173 107.065 91.5632L102.329 94.2589C102.249 94.3031 102.162 94.331 102.072 94.3411C101.983 94.3512 101.892 94.3433 101.805 94.3178C101.718 94.2923 101.637 94.2497 101.567 94.1925C101.496 94.1353 101.438 94.0647 101.395 93.9848C100.857 93.0641 100.053 92.3289 99.0892 91.8762C98.1257 91.4235 97.0481 91.2745 95.9985 91.449C93.994 91.7916 91.9462 91.7916 89.9417 91.449C88.8897 91.2766 87.8104 91.429 86.8466 91.8859C85.8829 92.3429 85.0803 93.0828 84.5452 94.0076C84.4506 94.1608 84.3014 94.2721 84.128 94.3187C83.9545 94.3654 83.7699 94.344 83.6116 94.2589L78.8071 91.4718C78.7266 91.4259 78.6566 91.3636 78.6017 91.2888C78.5468 91.214 78.5082 91.1285 78.4883 91.0378C78.4517 90.9591 78.4327 90.8733 78.4327 90.7865C78.4327 90.6996 78.4517 90.6138 78.4883 90.5352C79.0083 89.6102 79.2406 88.5504 79.1553 87.4919C79.0701 86.4334 78.6713 85.4247 78.0102 84.5954C76.7052 82.9997 75.6671 81.202 74.9362 79.2725C74.5543 78.3056 73.8926 77.4755 73.0363 76.8892C72.18 76.3029 71.1684 75.9872 70.1317 75.9828C69.9506 75.9828 69.7768 75.9106 69.6487 75.7821C69.5206 75.6536 69.4486 75.4792 69.4486 75.2975V69.7233C69.4454 69.6324 69.4609 69.5419 69.4941 69.4573C69.5274 69.3727 69.5775 69.2959 69.6416 69.2316C69.7057 69.1673 69.7823 69.1169 69.8666 69.0836C69.9509 69.0503 70.0412 69.0347 70.1317 69.0379C71.1892 69.0338 72.2207 68.7086 73.0905 68.1052C73.9602 67.5017 74.6275 66.6481 75.0045 65.6568C75.7302 63.7249 76.7688 61.9264 78.0785 60.3339C78.7396 59.5047 79.1385 58.496 79.2237 57.4375C79.3089 56.379 79.0766 55.3192 78.5566 54.3942C78.5196 54.3116 78.5004 54.2221 78.5004 54.1315C78.5004 54.0409 78.5196 53.9514 78.5566 53.8688C78.5751 53.7804 78.6135 53.6975 78.6687 53.6262C78.7239 53.555 78.7946 53.4973 78.8754 53.4576L83.6799 50.6705C83.7916 50.6393 83.9097 50.6393 84.0215 50.6705C84.1354 50.6719 84.2472 50.7019 84.3466 50.7578C84.446 50.8136 84.5299 50.8936 84.5907 50.9903C85.1282 51.9129 85.9312 52.651 86.8943 53.1076C87.8573 53.5642 88.9355 53.718 89.9872 53.5489C91.9917 53.2064 94.0395 53.2064 96.044 53.5489C97.1028 53.6924 98.18 53.5118 99.1348 53.0308C100.09 52.5498 100.877 51.7908 101.395 50.8532C101.44 50.7779 101.498 50.7121 101.569 50.6598C101.639 50.6074 101.718 50.5696 101.803 50.5483C101.888 50.5271 101.976 50.5229 102.062 50.536C102.148 50.5491 102.231 50.5793 102.306 50.6248L107.11 53.4119C107.191 53.4516 107.262 53.5093 107.317 53.5805C107.372 53.6518 107.411 53.7347 107.429 53.8231C107.466 53.9057 107.485 53.9952 107.485 54.0858C107.485 54.1764 107.466 54.2659 107.429 54.3485C106.905 55.2682 106.67 56.3253 106.756 57.3812C106.841 58.4371 107.242 59.4425 107.907 60.2654C109.201 61.8733 110.231 63.6779 110.958 65.6112C111.317 66.6209 111.973 67.4977 112.839 68.1258C113.705 68.7539 114.74 69.1038 115.808 69.1293C115.899 69.1261 115.989 69.1417 116.074 69.175C116.158 69.2083 116.234 69.2587 116.299 69.3229C116.363 69.3872 116.413 69.4641 116.446 69.5487C116.479 69.6333 116.495 69.7238 116.492 69.8147V75.2975Z" fill="#32A071"/>
<path d="M93.5 62C91.4233 62 89.3932 62.6158 87.6665 63.7696C85.9398 64.9233 84.594 66.5632 83.7993 68.4818C83.0045 70.4005 82.7966 72.5116 83.2018 74.5484C83.6069 76.5852 84.6069 78.4562 86.0754 79.9246C87.5438 81.3931 89.4148 82.3931 91.4516 82.7982C93.4884 83.2034 95.5996 82.9954 97.5182 82.2007C99.4368 81.406 101.077 80.0602 102.23 78.3335C103.384 76.6068 104 74.5767 104 72.5C104 69.7152 102.894 67.0445 100.925 65.0754C98.9555 63.1062 96.2848 62 93.5 62ZM93.5 78.3744C92.3382 78.3744 91.2024 78.0299 90.2363 77.3844C89.2703 76.7389 88.5173 75.8215 88.0727 74.7481C87.6281 73.6746 87.5118 72.4935 87.7384 71.354C87.9651 70.2144 88.5246 69.1677 89.3461 68.3461C90.1677 67.5246 91.2144 66.9651 92.354 66.7384C93.4935 66.5118 94.6746 66.6281 95.7481 67.0727C96.8215 67.5173 97.7389 68.2703 98.3844 69.2363C99.0299 70.2024 99.3745 71.3381 99.3745 72.5C99.3622 74.05 98.738 75.5323 97.6376 76.624C96.5372 77.7157 95.05 78.3282 93.5 78.3282V78.3744Z" fill="#32A071"/>
</svg>
