<svg width="102" height="102" viewBox="0 0 102 102" fill="none" xmlns="http://www.w3.org/2000/svg">
<path d="M101.593 55.6607L87.3271 26.2515C89.209 26.8057 93.4268 28.2671 93.7795 28.2671C94.9222 28.2671 95.9808 27.5783 96.4344 26.4365C96.9888 24.9753 96.2665 23.3461 94.8044 22.775C85.361 19.1639 73.1785 16.7958 60.2232 16.0566C59.3662 12.9493 56.9466 10.4638 53.8717 9.50636V2.8384C53.8717 1.27644 52.6113 0 51.032 0C49.4524 0 48.1754 1.25955 48.1754 2.8384V9.52299C45.1171 10.4804 42.7312 12.9493 41.8742 16.0397C28.8851 16.7786 16.6525 19.1302 7.2426 22.7581C5.78077 23.3123 5.05818 24.9584 5.6126 26.4196C6.04954 27.5448 7.12485 28.2336 8.26749 28.2336C8.60358 28.2336 12.8212 26.789 14.7199 26.218L0.28566 56.0135C0.268764 56.047 0 57.3908 0 57.4243C0.503998 67.8207 9.04025 75.9667 19.4584 75.9667C29.7252 75.9667 38.1437 68.0727 38.883 57.8945C38.9165 57.6929 38.6982 56.0135 38.4796 55.6942L23.1886 24.1689C29.0531 22.9595 35.4215 22.1367 42.0419 21.7672C43.0332 24.6056 45.3016 26.8228 48.1751 27.7295V84.0959H36.0264C35.1694 84.0959 34.346 84.4991 33.7915 85.1541L24.0625 97.398C23.3734 98.2377 23.2559 99.4136 23.7433 100.388C24.2306 101.379 25.2051 102 26.2973 102H75.7497C75.7666 102 75.7666 102 75.7666 102C77.3293 102 78.6063 100.74 78.6063 99.1616C78.6063 98.3723 78.2871 97.65 77.7662 97.1294L68.222 85.1037C67.6842 84.4152 66.861 84.0455 65.9871 84.0455H53.855V27.696C56.7451 26.789 59.0304 24.5721 60.0218 21.7168C66.6086 22.1031 72.9771 22.9262 78.8415 24.1185L63.3993 55.9797C63.3824 56.0132 63.1136 57.357 63.1136 57.3905C63.6176 67.787 72.1539 75.933 82.572 75.933C92.8388 75.933 101.257 68.039 101.997 57.8607C102.03 57.6763 101.812 55.98 101.593 55.6607ZM19.4584 70.2897C13.0899 70.2897 7.71281 65.9901 6.1166 60.0779H32.7835C31.2206 65.9901 25.8268 70.2897 19.4584 70.2897ZM31.5736 54.4011H7.36009L19.4753 29.4427L31.5736 54.4011ZM64.6425 89.7223L69.8852 96.3398H32.1618L37.4045 89.7223H64.6425ZM51.032 22.5061C48.8811 22.5061 47.1336 20.7594 47.1336 18.6095C47.1336 16.4596 48.8811 14.7129 51.032 14.7129C53.1828 14.7129 54.9303 16.4596 54.9303 18.6095C54.9303 20.7594 53.1826 22.5061 51.032 22.5061ZM82.5717 29.4427L94.6869 54.4011H70.4566L82.5717 29.4427ZM82.5717 70.2897C76.2033 70.2897 70.8262 65.9901 69.2299 60.0779H95.8969C94.3173 65.9901 88.9402 70.2897 82.5717 70.2897Z" fill="#32A071"/>
</svg>
